<?xml version="1.0" encoding="UTF-8" standalone="no"?>
<!-- Created with Inkscape (http://www.inkscape.org/) -->

<svg
   width="139.24231mm"
   height="139.17305mm"
   viewBox="0 0 139.24231 139.17305"
   version="1.1"
   id="svg1"
   xml:space="preserve"
   xmlns="http://www.w3.org/2000/svg"
   xmlns:svg="http://www.w3.org/2000/svg"><defs
     id="defs1" /><g
     id="layer1"
     transform="translate(-61.736457,-121.18865)"><g
       id="g4"
       transform="translate(40.309439,98.227736)"
       style="stroke-width:0.2;stroke-dasharray:none"><path
         d="m 89.322442,105.01102 0.02636,-0.0951 -10.703223,-13.923701 -20.477303,-5.695777 -10.059334,43.204598 25.38553,33.41191 10.185425,-36.61792 -15.921509,-3.70726 z"
         style="opacity:1;fill:#c5ec5a;fill-opacity:0.8;stroke:#1a1a1a;stroke-width:0.2;stroke-dasharray:none"
         id="path6" /><path
         d="M 58.168271,85.296462 78.645057,90.992239 61.910678,69.223025 Z"
         style="opacity:1;fill:#c5ec5a;fill-opacity:1;stroke:#1a1a1a;stroke-width:0.2;stroke-dasharray:none"
         id="path5" /><path
         d="m 58.168271,85.296462 3.742407,-16.073437 16.734379,21.769214 h 5.17e-4 L 92.711899,80.179462 92.711382,80.178945 98.369951,59.836518 55.059934,49.752379 21.648019,75.138426 Z"
         style="opacity:1;fill:#c5ec5a;fill-opacity:0.8;stroke:#1a1a1a;stroke-width:0.2;stroke-dasharray:none"
         id="path4" /><path
         d="m 98.369951,59.836518 -5.658569,20.342427 5.17e-4,5.17e-4 21.626071,-16.624825 z"
         style="opacity:1;fill:#c5ec5a;fill-opacity:1;stroke:#1a1a1a;stroke-width:0.2;stroke-dasharray:none"
         id="path11" /><path
         d="m 108.56571,23.181908 -10.195759,36.65461 15.968019,3.718119 -21.626071,16.624825 10.739401,13.970207 20.43286,5.683374 10.0676,-43.239221 z"
         style="opacity:1;fill:#c5ec5a;fill-opacity:0.8;stroke:#1a1a1a;stroke-width:0.2;stroke-dasharray:none"
         id="path10" /><path
         d="M 123.88416,99.833043 103.4513,94.149669 120.1495,115.87186 Z"
         style="opacity:1;fill:#c5ec5a;fill-opacity:1;stroke:#1a1a1a;stroke-width:0.2;stroke-dasharray:none"
         id="path9" /><path
         d="m 123.88416,99.833043 -3.73466,16.038817 -16.6982,-21.722191 -14.128858,10.861351 -5.64255,20.28403 43.356528,10.095 33.41191,-25.38605 z"
         style="opacity:1;fill:#c5ec5a;fill-opacity:0.8;stroke:#1a1a1a;stroke-width:0.2;stroke-dasharray:none"
         id="path8" /><path
         d="m 89.322442,105.01102 -21.564059,16.57677 15.921509,3.70726 z"
         style="opacity:1;fill:#c5ec5a;fill-opacity:1;stroke:#1a1a1a;stroke-width:0.2;stroke-dasharray:none"
         id="path7" /><rect
         style="opacity:1;fill:#000000;stroke-width:0.2;stroke-dasharray:none"
         id="rect4"
         width="5.8766756"
         height="5.8766708"
         x="125.90739"
         y="-19.005909"
         transform="rotate(52.581835)" /></g></g></svg>
